<svg xmlns="http://www.w3.org/2000/svg" width="2360" height="1640" viewBox="0 0 2360 1640" version="1.1">
	<path d="M 1284.192 617.075 C 1284.389 617.666, 1284.977 618.150, 1285.500 618.150 C 1286.023 618.150, 1286.611 617.666, 1286.808 617.075 C 1287.005 616.484, 1286.417 616, 1285.500 616 C 1284.583 616, 1283.995 616.484, 1284.192 617.075 M 1156 798.339 C 1156 799.076, 1157.125 800.192, 1158.500 800.818 C 1160.682 801.812, 1161 801.719, 1161 800.086 C 1161 799.056, 1160.288 797.941, 1159.418 797.607 C 1156.974 796.669, 1156 796.878, 1156 798.339 M 1046.087 799.396 C 1044.863 800.869, 1044.236 816.569, 1045.355 817.689 C 1045.714 818.047, 1045.400 819.276, 1044.659 820.420 C 1043.917 821.564, 1043.051 824.465, 1042.734 826.868 C 1042.418 829.270, 1040.773 834.050, 1039.079 837.490 C 1035.173 845.426, 1035.212 846.156, 1039.332 842.163 C 1042.866 838.737, 1046 838.673, 1046 842.025 C 1046 843.021, 1046.281 844.570, 1046.625 845.466 C 1047.059 846.597, 1045.628 848.612, 1041.949 852.048 C 1037.831 855.894, 1037.092 857, 1038.643 857 C 1039.741 857, 1042.480 855.425, 1044.729 853.500 C 1049.406 849.496, 1051.111 849.231, 1054.885 851.918 C 1059.578 855.260, 1068.852 857, 1081.968 857 C 1093.034 857, 1094.115 856.840, 1093.796 855.250 C 1093.493 853.736, 1092.467 853.547, 1086.200 853.850 C 1077.320 854.279, 1063.012 852.293, 1057.138 849.815 C 1052.132 847.703, 1052.093 847.200, 1056.103 836.246 C 1058.675 829.223, 1057.996 826.861, 1054.020 828.990 C 1052.349 829.883, 1051.970 830.744, 1052.433 832.591 C 1052.928 834.561, 1051.217 839.830, 1049.420 841.869 C 1048.534 842.875, 1045.709 838.511, 1045.732 836.174 C 1045.777 831.814, 1047.964 824.588, 1049.619 823.332 C 1050.853 822.396, 1050.930 821.738, 1050.010 820.018 C 1049.150 818.412, 1049.148 817.527, 1050 816.500 C 1050.837 815.492, 1050.846 814.581, 1050.034 813.064 C 1049.244 811.588, 1049.235 810.430, 1050 809 C 1050.705 807.683, 1050.741 806.384, 1050.105 805.196 C 1049.542 804.145, 1049.504 802.803, 1050.013 801.980 C 1050.536 801.132, 1050.459 800.053, 1049.820 799.284 C 1048.452 797.635, 1047.525 797.663, 1046.087 799.396 M 1064.471 806.500 C 1062.983 811.175, 1061.368 815, 1060.882 815 C 1060.397 815, 1060 815.650, 1060 816.443 C 1060 817.237, 1058.674 818.670, 1057.054 819.627 C 1053.779 821.562, 1053.925 823, 1057.399 823 C 1058.861 823, 1060.088 822.103, 1060.818 820.500 C 1062.150 817.576, 1065 817.152, 1065 819.878 C 1065 821.964, 1067.315 824.352, 1068.342 823.325 C 1069.604 822.062, 1068.984 819.612, 1066.818 817.307 C 1064.711 815.064, 1064.694 814.865, 1066.302 811.492 C 1067.218 809.572, 1068.654 808, 1069.492 808 C 1070.752 808, 1070.806 807.662, 1069.803 806.056 C 1068.802 804.454, 1068.906 803.761, 1070.392 802.119 C 1072.424 799.874, 1071.804 798, 1069.030 798 C 1067.585 798, 1066.583 799.867, 1064.471 806.500 M 1226.337 801.564 C 1226.007 802.425, 1225.994 805.301, 1226.308 807.955 C 1227.257 815.965, 1225.025 817.270, 1215.250 814.422 C 1213.900 814.029, 1213 814.199, 1213 814.848 C 1213 816.514, 1217.025 818.351, 1222 818.954 L 1226.500 819.500 1226.500 828.500 L 1226.500 837.500 1221.105 838.158 C 1209.545 839.569, 1204.311 845.953, 1210.635 850.927 C 1216.280 855.368, 1227.327 852.430, 1230.101 845.750 C 1231.549 842.262, 1234 842.224, 1239.762 845.600 C 1242.759 847.357, 1244.528 847.872, 1245.212 847.188 C 1247.133 845.267, 1245.067 843.772, 1234.750 839.614 C 1231.150 838.163, 1231 837.910, 1230.989 833.301 C 1230.983 830.660, 1230.707 826.863, 1230.376 824.863 C 1229.900 821.979, 1230.213 820.787, 1231.887 819.113 C 1233.049 817.951, 1235.039 817, 1236.309 817 C 1237.579 817, 1239.491 816.309, 1240.559 815.465 C 1242.449 813.970, 1242.451 813.897, 1240.629 812.715 C 1239.601 812.047, 1237.351 810.584, 1235.629 809.465 C 1233.908 808.346, 1231.709 805.758, 1230.742 803.715 C 1228.873 799.765, 1227.319 799.006, 1226.337 801.564 M 1194.751 809.195 C 1194.525 813.213, 1193.574 821.143, 1192.638 826.818 C 1191.249 835.239, 1191.142 838.267, 1192.053 843.292 C 1194.041 854.258, 1195.835 855.530, 1199.043 848.250 C 1200.195 845.638, 1201.761 842.150, 1202.523 840.500 C 1203.503 838.380, 1203.582 837.386, 1202.792 837.112 C 1201.755 836.753, 1200.172 838.350, 1197.950 842 C 1197.138 843.333, 1196.917 843.333, 1195.963 842 C 1194.720 840.264, 1195.358 829.382, 1197.375 817.934 C 1198.825 809.703, 1198.521 804.678, 1196.472 802.977 C 1195.417 802.101, 1195.082 803.314, 1194.751 809.195 M 1288.531 805.311 C 1289.144 808.579, 1287.189 812.870, 1280.824 822.233 C 1277.148 827.639, 1265.906 851.039, 1266.513 852.021 C 1267.753 854.027, 1270.376 851.137, 1273.914 843.869 C 1276.506 838.543, 1278.700 835.599, 1281.828 833.250 C 1289.622 827.396, 1293.279 829.526, 1294.823 840.816 C 1295.843 848.273, 1298.716 852, 1303.446 852 C 1307.607 852, 1313.177 847.282, 1315.930 841.426 C 1318.780 835.362, 1318.199 831.956, 1315.270 837.565 C 1311.887 844.046, 1307.667 848, 1304.134 848 C 1300.392 848, 1299.519 846.549, 1297.866 837.577 C 1296.804 831.812, 1296.133 830.440, 1293.329 828.301 C 1290.425 826.087, 1289.663 825.922, 1286.857 826.900 C 1285.107 827.510, 1283.411 827.742, 1283.088 827.416 C 1282.765 827.090, 1284.638 822.837, 1287.250 817.965 C 1292.082 808.954, 1292.949 805.349, 1290.800 803.200 C 1288.717 801.117, 1287.888 801.888, 1288.531 805.311 M 1055.122 804.278 C 1053.334 806.066, 1053.807 807, 1056.500 807 C 1057.970 807, 1059 806.426, 1059 805.607 C 1059 803.734, 1056.517 802.883, 1055.122 804.278 M 1153 803.845 C 1153 805.046, 1156.433 808, 1157.829 808 C 1159.352 808, 1159.334 805.734, 1157.800 804.200 C 1156.429 802.829, 1153 802.575, 1153 803.845 M 1088.128 805.868 C 1086.105 807.424, 1085.995 807.784, 1087.378 808.315 C 1088.763 808.846, 1088.997 810.878, 1088.976 822.219 C 1088.955 834.240, 1088.082 842.251, 1086.638 843.695 C 1086.343 843.990, 1084.694 844.520, 1082.974 844.871 L 1079.847 845.511 1083.081 847.901 C 1085.474 849.671, 1086.727 850.035, 1087.907 849.304 C 1091.138 847.299, 1091.855 843.571, 1092.097 827.500 C 1092.230 818.700, 1092.722 810.433, 1093.191 809.128 C 1093.736 807.610, 1093.631 806.261, 1092.899 805.378 C 1091.436 803.615, 1091 803.660, 1088.128 805.868 M 1126 805.939 C 1126 806.456, 1129.188 807.193, 1133.084 807.577 C 1141.132 808.370, 1142.894 810.076, 1138.917 813.225 C 1128.915 821.143, 1123 829.513, 1123 835.745 C 1123 837.164, 1124.112 840.222, 1125.472 842.542 C 1128.977 848.523, 1133.630 850.245, 1147.750 850.785 C 1157.598 851.162, 1159 851.015, 1159 849.608 C 1159 848.612, 1158.143 847.993, 1156.750 847.983 C 1150.503 847.935, 1135.724 845.863, 1133.749 844.758 C 1128.323 841.723, 1127 839.806, 1127 834.976 C 1127 827.630, 1130.910 823.205, 1147.804 811.431 C 1150.774 809.361, 1150.200 807.796, 1145.925 806.306 C 1141.848 804.886, 1126 804.594, 1126 805.939 M 1073.813 807.683 C 1074.534 807.972, 1075.397 807.936, 1075.729 807.604 C 1076.061 807.272, 1075.471 807.036, 1074.417 807.079 C 1073.252 807.127, 1073.015 807.364, 1073.813 807.683 M 1072 817.878 C 1072 822.771, 1071.567 825.114, 1070.500 826 C 1069.675 826.685, 1068.993 827.977, 1068.984 828.872 C 1068.966 830.609, 1065.980 835.903, 1062.182 840.931 C 1058.907 845.267, 1061.066 844.741, 1066 840 C 1068.290 837.800, 1070.555 836, 1071.034 836 C 1071.513 836, 1072.039 838.777, 1072.202 842.171 C 1072.387 845.991, 1072.976 848.498, 1073.750 848.754 C 1074.671 849.058, 1075 847.303, 1075 842.083 C 1075 838.188, 1075.432 835, 1075.960 835 C 1076.487 835, 1078.054 836.224, 1079.440 837.719 C 1081.290 839.714, 1082.258 840.142, 1083.074 839.326 C 1084.709 837.691, 1082.697 834.531, 1079.059 833.024 C 1077.075 832.203, 1076.021 831.042, 1075.982 829.637 C 1075.949 828.462, 1075.674 824.670, 1075.371 821.212 C 1075.032 817.353, 1075.237 814.420, 1075.901 813.620 C 1077.193 812.063, 1076.354 811, 1073.833 811 C 1072.233 811, 1072 811.875, 1072 817.878 M 1053 813.500 C 1051.947 814.768, 1052.160 815, 1054.378 815 C 1056.042 815, 1057 814.452, 1057 813.500 C 1057 812.675, 1056.380 812, 1055.622 812 C 1054.865 812, 1053.685 812.675, 1053 813.500 M 1080.413 816.492 C 1079.485 817.908, 1079.070 819.741, 1079.452 820.736 C 1080.052 822.298, 1080.331 822.218, 1082.040 819.993 C 1084.087 817.329, 1084.633 814, 1083.023 814 C 1082.486 814, 1081.311 815.122, 1080.413 816.492 M 1081.496 826.007 C 1080.736 827.236, 1083.488 828.434, 1084.968 827.520 C 1085.554 827.158, 1085.774 826.443, 1085.457 825.931 C 1084.694 824.696, 1082.277 824.742, 1081.496 826.007 M 1213.174 843.314 C 1210.389 846.279, 1210.436 847.360, 1213.420 848.957 C 1218.297 851.567, 1227 847.629, 1227 842.811 C 1227 841.270, 1226.131 841, 1221.174 841 C 1216.378 841, 1214.965 841.409, 1213.174 843.314 M 1077.667 909.667 C 1075.766 911.567, 1077.348 915.193, 1082 919.597 C 1084.750 922.201, 1087 924.914, 1087 925.627 C 1087 926.340, 1084.748 927.591, 1081.996 928.408 C 1074.017 930.778, 1062.140 937.077, 1059.080 940.561 C 1054.059 946.280, 1054.184 954.109, 1059.350 957.493 C 1064.265 960.714, 1067.829 960.423, 1082.605 955.594 C 1100.926 949.606, 1107.269 949.651, 1114.297 955.818 C 1121.289 961.953, 1121.213 978.007, 1114.139 989.500 C 1105.001 1004.344, 1092.879 1013.099, 1072.750 1019.390 C 1071.787 1019.691, 1071 1020.688, 1071 1021.606 C 1071 1023.032, 1071.766 1023.185, 1076.250 1022.654 C 1095.327 1020.398, 1114.319 1006.564, 1123.103 988.525 C 1126.014 982.549, 1126.550 980.302, 1126.848 972.828 C 1127.150 965.242, 1126.875 963.407, 1124.738 958.739 C 1119.928 948.232, 1112.638 943.559, 1101 943.523 C 1093.571 943.500, 1091.238 944.095, 1081.449 948.508 C 1068.853 954.188, 1062.741 955.253, 1061.035 952.065 C 1057.560 945.572, 1070.549 937.743, 1092.787 932.927 C 1097.718 931.860, 1101 929.918, 1101 928.067 C 1101 926.712, 1081.272 909, 1079.763 909 C 1078.977 909, 1078.033 909.300, 1077.667 909.667 M 1384.513 909.979 C 1383.749 911.216, 1385.199 913.965, 1387.907 916.416 C 1390.900 919.125, 1390.504 921.378, 1386.499 924.433 C 1379.737 929.590, 1378.560 935.195, 1381.950 946.087 C 1383.023 949.533, 1383.701 952.675, 1383.458 953.068 C 1383.215 953.461, 1379.975 955.282, 1376.258 957.113 C 1369.209 960.586, 1361.802 961.495, 1355.750 959.631 C 1353.359 958.894, 1353 959.055, 1353 960.866 C 1353 963.888, 1358.368 966.325, 1365 966.313 C 1368.930 966.305, 1372.719 965.373, 1378.273 963.048 C 1386.584 959.569, 1388.207 959.755, 1389.560 964.340 C 1389.911 965.528, 1393.561 975.050, 1397.672 985.500 C 1412.490 1023.166, 1411.933 1022, 1415.103 1022 C 1418.501 1022, 1418.491 1017.543, 1415.075 1008.699 C 1411.526 999.511, 1410.320 996.628, 1408.507 993 C 1407.820 991.625, 1406.687 988.700, 1405.989 986.500 C 1405.291 984.300, 1403.658 980.278, 1402.360 977.563 C 1401.062 974.847, 1400 972.258, 1400 971.808 C 1400 971.358, 1398.933 968.778, 1397.628 966.073 C 1393.643 957.814, 1393.608 956.655, 1397.283 954.764 C 1405.853 950.355, 1418.367 944.908, 1424.416 942.954 C 1436.559 939.031, 1449.127 941.366, 1454.618 948.566 C 1459.711 955.243, 1457.035 963.937, 1448.158 969.553 C 1444.164 972.080, 1442.627 972.407, 1432.859 972.809 C 1423.481 973.196, 1422 973.489, 1422 974.957 C 1422 976.927, 1429.524 979.028, 1436.326 978.956 C 1449.353 978.818, 1461.454 970.901, 1464.152 960.751 C 1465.249 956.623, 1465.181 955.314, 1463.628 950.751 C 1460.668 942.051, 1455.416 937.340, 1445.448 934.442 C 1434.735 931.328, 1423.238 933.840, 1403.596 943.589 C 1397.600 946.565, 1392.159 949, 1391.507 949 C 1389.859 949, 1387.961 944.467, 1387.311 938.975 C 1386.611 933.068, 1388.855 928.513, 1393.574 926.263 C 1396.988 924.635, 1397.167 924.660, 1402.429 927.507 C 1406.992 929.975, 1408.039 930.212, 1409.399 929.083 C 1412.411 926.584, 1411.132 924.540, 1403.750 920.055 C 1399.763 917.632, 1394.415 914.154, 1391.866 912.325 C 1387.004 908.836, 1385.513 908.361, 1384.513 909.979 M 1277.108 912.912 C 1275.669 913.823, 1275.818 916.485, 1277.924 927.500 C 1280.903 943.073, 1276.235 973.462, 1268.974 985.768 C 1267.888 987.609, 1267 989.610, 1267 990.216 C 1267 991.842, 1259.193 1001.933, 1254.618 1006.223 C 1243.186 1016.940, 1226.322 1017.826, 1217.832 1008.156 C 1208.360 997.368, 1208.484 980.276, 1218.170 961.500 C 1221.524 954.999, 1231.011 941.908, 1237.014 935.500 C 1241.340 930.882, 1242.081 929.182, 1240.830 926.750 C 1239.375 923.921, 1236.008 924.699, 1227.462 929.838 C 1214.024 937.920, 1207.944 939.357, 1199.250 936.505 C 1197.297 935.864, 1197 936.116, 1197 938.419 C 1197 943.024, 1207.894 946.512, 1214.471 944.011 C 1218.577 942.450, 1218.702 945.210, 1214.821 951.760 C 1206.537 965.745, 1204 974.009, 1204 987.011 C 1204 1005.386, 1213.245 1018.022, 1228.706 1020.782 C 1245.917 1023.854, 1263.912 1011.977, 1274.946 990.262 C 1278.349 983.566, 1284 966.925, 1284 963.601 C 1284 961.167, 1286.489 957.155, 1287.420 958.087 C 1287.741 958.408, 1289.168 962.007, 1290.591 966.085 C 1293.536 974.524, 1298.568 987.415, 1300.213 990.733 C 1301.583 993.497, 1304.616 994.563, 1306.548 992.960 C 1308.142 991.637, 1308.486 987.948, 1307.156 986.450 C 1306.398 985.597, 1303.571 978.815, 1299.254 967.500 C 1298.415 965.300, 1297.083 962.015, 1296.294 960.200 C 1293.436 953.627, 1286.619 931.319, 1284.544 921.748 C 1283.380 916.384, 1282.288 913.690, 1280.997 912.998 C 1278.765 911.804, 1278.855 911.806, 1277.108 912.912 M 967.500 915.043 C 963.650 916.046, 956.900 917.773, 952.500 918.880 C 942.198 921.472, 928.989 926.090, 925.909 928.177 C 924.185 929.345, 923.803 930.125, 924.565 930.919 C 925.342 931.730, 927.768 931.491, 933.565 930.030 C 941.584 928.010, 945 927.561, 945 928.530 C 945 928.821, 942.832 931.286, 940.181 934.007 C 937.531 936.728, 934.738 940.202, 933.974 941.727 C 933.211 943.252, 931.951 945.269, 931.174 946.210 C 928.909 948.954, 929.103 958.343, 931.480 960.974 C 935.345 965.252, 939.579 966.248, 951.250 965.623 L 962 965.047 962 974.958 C 962 990.067, 962.364 989.645, 948.824 990.241 C 936.735 990.774, 932.530 992, 927.085 996.582 C 922.893 1000.109, 921 1003.998, 921 1009.082 C 921 1012.531, 921.588 1013.818, 924.353 1016.426 C 927.641 1019.527, 934.898 1022, 940.710 1022 C 947.154 1022, 956.195 1017.607, 960 1012.627 C 960.825 1011.547, 962.633 1008.377, 964.018 1005.582 C 965.827 1001.930, 967.201 1000.405, 968.900 1000.163 C 970.319 999.961, 975.839 1002.127, 982.687 1005.573 C 992.998 1010.761, 994.260 1011.169, 995.657 1009.771 C 996.552 1008.877, 996.951 1007.420, 996.602 1006.323 C 995.605 1003.180, 983.558 996.804, 970.696 992.610 C 969.072 992.080, 968.908 990.753, 969.047 979.261 C 969.239 963.298, 969.435 962.461, 973.337 960.929 C 987.103 955.527, 991 952.986, 991 949.412 C 991 945.396, 987.683 945.549, 979.489 949.942 C 975.326 952.174, 971.327 954, 970.603 954 C 969.679 954, 969.086 951.581, 968.610 945.870 C 967.851 936.776, 966.793 934, 964.087 934 C 960.585 934, 959.694 936.503, 960.436 944.257 C 960.818 948.241, 961.375 952.515, 961.675 953.755 C 962.454 956.981, 957.096 959, 947.755 959 C 937.087 959, 934.100 956.127, 936.957 948.613 C 938.508 944.534, 958.744 924.202, 961.818 923.633 C 963.293 923.360, 967.555 922.602, 971.288 921.948 C 979.687 920.477, 982.787 918.339, 981.098 915.183 C 979.684 912.540, 977.206 912.515, 967.500 915.043 M 1298 916.287 C 1298 916.994, 1300.276 919.272, 1303.057 921.349 C 1308.893 925.705, 1312.500 925.966, 1312.500 922.032 C 1312.500 920.196, 1311.474 918.983, 1308.500 917.298 C 1304.088 914.800, 1298 914.213, 1298 916.287 M 892.489 919.018 C 892.143 919.578, 892.838 921.620, 894.034 923.555 C 895.929 926.621, 896.142 928.065, 895.690 934.787 C 895.404 939.029, 894.737 944.300, 894.207 946.500 C 887.299 975.190, 886.568 993.690, 891.581 1012.966 C 893.241 1019.348, 894.966 1021.463, 897.781 1020.570 C 900.019 1019.859, 901.277 1017.106, 903.069 1009 C 904.172 1004.005, 907.658 992.900, 911.386 982.500 C 912.395 979.687, 912.511 978.125, 911.778 977.238 C 909.735 974.765, 907.232 978.645, 900.478 994.750 C 897.714 1001.343, 896.807 1000.445, 895.608 989.926 C 895.038 984.929, 896.316 970.258, 897.949 963.048 C 898.515 960.547, 899.681 955.457, 900.539 951.739 C 903.016 941.005, 903.486 929.188, 901.610 924.817 C 899.359 919.572, 894.181 916.280, 892.489 919.018 M 1293 926.275 C 1293 928.428, 1303.673 939, 1305.847 939 C 1308.289 939, 1309.505 935.812, 1308.079 933.148 C 1305.550 928.422, 1293 922.702, 1293 926.275 M 942.500 998.061 C 934.274 999.729, 932.918 1000.308, 930.489 1003.195 C 927.547 1006.692, 927.319 1009.937, 929.801 1013.003 C 931.347 1014.912, 932.556 1015.221, 938.336 1015.188 C 947.683 1015.134, 952.827 1012.097, 956.588 1004.410 C 958.858 999.770, 959.083 998.666, 957.912 997.924 C 956.227 996.858, 948.081 996.930, 942.500 998.061" stroke="none" fill="#000000" fill-rule="evenodd"/>
</svg>