<svg width="2360" height="1640" viewBox="0 0 2360 1640" fill="none" xmlns="http://www.w3.org/2000/svg">
<ellipse cx="1077" cy="271" rx="47" ry="48" fill="#D9D9D9"/>
<path fill-rule="evenodd" clip-rule="evenodd" d="M1088.86 222.829C1088.88 222.923 1088.94 222.999 1089 222.999C1089.05 222.999 1089.11 222.923 1089.13 222.829C1089.15 222.735 1089.09 222.659 1089 222.659C1088.9 222.659 1088.84 222.735 1088.86 222.829ZM1075.5 251.566C1075.5 251.683 1075.62 251.86 1075.76 251.959C1075.99 252.117 1076.02 252.102 1076.02 251.843C1076.02 251.68 1075.95 251.503 1075.85 251.45C1075.6 251.301 1075.5 251.334 1075.5 251.566ZM1064.04 251.734C1063.91 251.967 1063.85 254.456 1063.96 254.634C1064 254.69 1063.97 254.885 1063.89 255.067C1063.82 255.248 1063.72 255.708 1063.69 256.089C1063.66 256.47 1063.49 257.227 1063.31 257.773C1062.9 259.031 1062.91 259.147 1063.34 258.514C1063.71 257.971 1064.03 257.96 1064.03 258.492C1064.03 258.65 1064.06 258.895 1064.1 259.037C1064.14 259.217 1063.99 259.536 1063.61 260.081C1063.18 260.691 1063.1 260.866 1063.27 260.866C1063.38 260.866 1063.67 260.616 1063.9 260.311C1064.39 259.676 1064.56 259.634 1064.96 260.06C1065.45 260.59 1066.41 260.866 1067.78 260.866C1068.93 260.866 1069.05 260.841 1069.01 260.588C1068.98 260.348 1068.88 260.318 1068.22 260.366C1067.3 260.435 1065.81 260.12 1065.19 259.727C1064.67 259.392 1064.67 259.312 1065.09 257.576C1065.35 256.462 1065.28 256.088 1064.87 256.425C1064.69 256.567 1064.65 256.703 1064.7 256.996C1064.75 257.308 1064.58 258.144 1064.39 258.467C1064.3 258.627 1064 257.935 1064 257.564C1064.01 256.873 1064.24 255.727 1064.41 255.528C1064.54 255.38 1064.55 255.276 1064.45 255.003C1064.36 254.748 1064.36 254.608 1064.45 254.445C1064.54 254.285 1064.54 254.141 1064.45 253.9C1064.37 253.666 1064.37 253.483 1064.45 253.256C1064.52 253.047 1064.53 252.841 1064.46 252.653C1064.4 252.486 1064.4 252.274 1064.45 252.143C1064.51 252.009 1064.5 251.838 1064.43 251.716C1064.29 251.454 1064.19 251.459 1064.04 251.734ZM1065.96 252.86C1065.8 253.601 1065.63 254.207 1065.58 254.207C1065.53 254.207 1065.49 254.31 1065.49 254.436C1065.49 254.562 1065.35 254.789 1065.18 254.941C1064.84 255.248 1064.86 255.476 1065.22 255.476C1065.37 255.476 1065.5 255.333 1065.58 255.079C1065.72 254.616 1066.01 254.549 1066.01 254.981C1066.01 255.311 1066.25 255.69 1066.36 255.527C1066.49 255.327 1066.43 254.939 1066.2 254.573C1065.98 254.217 1065.98 254.186 1066.15 253.651C1066.24 253.347 1066.39 253.098 1066.48 253.098C1066.61 253.098 1066.62 253.044 1066.51 252.789C1066.41 252.535 1066.42 252.426 1066.57 252.165C1066.79 251.809 1066.72 251.512 1066.43 251.512C1066.28 251.512 1066.18 251.808 1065.96 252.86ZM1082.83 252.077C1082.8 252.214 1082.79 252.67 1082.83 253.09C1082.93 254.36 1082.69 254.567 1081.67 254.116C1081.53 254.053 1081.44 254.08 1081.44 254.183C1081.44 254.447 1081.86 254.739 1082.38 254.834L1082.85 254.921V256.348V257.774L1082.28 257.879C1081.08 258.102 1080.53 259.115 1081.19 259.903C1081.78 260.607 1082.93 260.141 1083.22 259.082C1083.37 258.529 1083.63 258.523 1084.23 259.059C1084.54 259.337 1084.73 259.419 1084.8 259.31C1085 259.006 1084.78 258.769 1083.71 258.11C1083.33 257.88 1083.32 257.839 1083.31 257.109C1083.31 256.69 1083.29 256.088 1083.25 255.771C1083.2 255.314 1083.23 255.125 1083.41 254.859C1083.53 254.675 1083.74 254.524 1083.87 254.524C1084 254.524 1084.2 254.415 1084.31 254.281C1084.51 254.044 1084.51 254.032 1084.32 253.845C1084.21 253.739 1083.98 253.507 1083.8 253.33C1083.62 253.152 1083.39 252.742 1083.29 252.418C1083.09 251.792 1082.93 251.672 1082.83 252.077ZM1079.54 253.287C1079.51 253.924 1079.41 255.181 1079.32 256.081C1079.17 257.416 1079.16 257.896 1079.26 258.693C1079.46 260.431 1079.65 260.633 1079.98 259.479C1080.11 259.065 1080.27 258.512 1080.35 258.25C1080.45 257.914 1080.46 257.756 1080.38 257.713C1080.27 257.656 1080.1 257.909 1079.87 258.488C1079.79 258.699 1079.76 258.699 1079.66 258.488C1079.53 258.213 1079.6 256.487 1079.81 254.672C1079.96 253.368 1079.93 252.571 1079.72 252.301C1079.61 252.162 1079.57 252.355 1079.54 253.287ZM1089.31 252.671C1089.38 253.189 1089.17 253.87 1088.51 255.354C1088.13 256.211 1086.95 259.921 1087.02 260.077C1087.15 260.395 1087.42 259.936 1087.79 258.784C1088.06 257.94 1088.29 257.473 1088.61 257.101C1089.43 256.173 1089.81 256.51 1089.97 258.3C1090.08 259.482 1090.37 260.073 1090.87 260.073C1091.3 260.073 1091.88 259.325 1092.17 258.397C1092.47 257.435 1092.41 256.895 1092.1 257.785C1091.75 258.812 1091.31 259.439 1090.94 259.439C1090.55 259.439 1090.46 259.209 1090.29 257.787C1090.18 256.873 1090.11 256.655 1089.81 256.316C1089.51 255.965 1089.43 255.939 1089.14 256.094C1088.96 256.191 1088.78 256.227 1088.75 256.176C1088.71 256.124 1088.91 255.45 1089.18 254.677C1089.68 253.249 1089.77 252.677 1089.55 252.337C1089.33 252.006 1089.25 252.129 1089.31 252.671ZM1064.98 252.508C1064.8 252.791 1064.85 252.939 1065.13 252.939C1065.28 252.939 1065.39 252.848 1065.39 252.718C1065.39 252.421 1065.13 252.286 1064.98 252.508ZM1075.19 252.439C1075.19 252.629 1075.54 253.098 1075.69 253.098C1075.85 253.098 1075.85 252.738 1075.69 252.495C1075.54 252.278 1075.19 252.238 1075.19 252.439ZM1068.42 252.76C1068.21 253.006 1068.2 253.063 1068.35 253.148C1068.49 253.232 1068.51 253.554 1068.51 255.352C1068.51 257.258 1068.42 258.528 1068.27 258.757C1068.24 258.803 1068.07 258.887 1067.89 258.943L1067.56 259.044L1067.9 259.423C1068.15 259.704 1068.28 259.762 1068.4 259.646C1068.74 259.328 1068.81 258.737 1068.84 256.189C1068.85 254.794 1068.9 253.483 1068.95 253.276C1069.01 253.036 1069 252.822 1068.92 252.682C1068.77 252.402 1068.72 252.41 1068.42 252.76ZM1072.37 252.771C1072.37 252.853 1072.7 252.97 1073.11 253.031C1073.95 253.156 1074.13 253.427 1073.72 253.926C1072.68 255.181 1072.06 256.508 1072.06 257.496C1072.06 257.721 1072.17 258.206 1072.32 258.574C1072.68 259.522 1073.17 259.795 1074.64 259.881C1075.66 259.94 1075.81 259.917 1075.81 259.694C1075.81 259.536 1075.72 259.438 1075.58 259.436C1074.93 259.429 1073.38 259.1 1073.18 258.925C1072.61 258.444 1072.48 258.14 1072.48 257.374C1072.48 256.21 1072.88 255.508 1074.64 253.642C1074.95 253.313 1074.89 253.065 1074.45 252.829C1074.02 252.604 1072.37 252.558 1072.37 252.771ZM1066.93 253.047C1067.01 253.093 1067.1 253.087 1067.13 253.035C1067.17 252.982 1067.1 252.945 1066.99 252.952C1066.87 252.959 1066.85 252.997 1066.93 253.047ZM1066.74 254.664C1066.74 255.439 1066.7 255.811 1066.59 255.951C1066.5 256.06 1066.43 256.265 1066.43 256.407C1066.43 256.682 1066.11 257.521 1065.72 258.318C1065.38 259.006 1065.6 258.922 1066.12 258.171C1066.36 257.822 1066.59 257.537 1066.64 257.537C1066.69 257.537 1066.75 257.977 1066.76 258.515C1066.78 259.121 1066.84 259.518 1066.92 259.559C1067.02 259.607 1067.06 259.329 1067.06 258.501C1067.06 257.883 1067.1 257.378 1067.16 257.378C1067.21 257.378 1067.37 257.572 1067.52 257.809C1067.71 258.125 1067.81 258.193 1067.9 258.064C1068.07 257.805 1067.86 257.304 1067.48 257.065C1067.27 256.935 1067.16 256.751 1067.16 256.528C1067.15 256.342 1067.13 255.74 1067.09 255.192C1067.06 254.58 1067.08 254.115 1067.15 253.989C1067.28 253.742 1067.2 253.573 1066.93 253.573C1066.77 253.573 1066.74 253.712 1066.74 254.664ZM1064.76 253.97C1064.65 254.171 1064.67 254.207 1064.91 254.207C1065.08 254.207 1065.18 254.12 1065.18 253.97C1065.18 253.839 1065.11 253.732 1065.04 253.732C1064.96 253.732 1064.83 253.839 1064.76 253.97ZM1067.62 254.444C1067.52 254.668 1067.48 254.959 1067.52 255.117C1067.58 255.364 1067.61 255.352 1067.79 254.999C1068 254.577 1068.06 254.049 1067.89 254.049C1067.84 254.049 1067.71 254.227 1067.62 254.444ZM1067.73 255.952C1067.65 256.147 1067.94 256.337 1068.09 256.192C1068.16 256.135 1068.18 256.021 1068.15 255.94C1068.07 255.745 1067.81 255.752 1067.73 255.952ZM1081.46 258.696C1081.17 259.166 1081.17 259.338 1081.48 259.591C1081.99 260.005 1082.9 259.38 1082.9 258.616C1082.9 258.372 1082.81 258.329 1082.29 258.329C1081.79 258.329 1081.64 258.394 1081.46 258.696ZM1067.33 269.216C1067.13 269.517 1067.3 270.092 1067.78 270.79C1068.07 271.203 1068.31 271.633 1068.31 271.746C1068.31 271.859 1068.07 272.057 1067.78 272.187C1066.95 272.562 1065.71 273.561 1065.4 274.113C1064.87 275.02 1064.89 276.261 1065.42 276.798C1065.94 277.308 1066.31 277.262 1067.85 276.497C1069.76 275.547 1070.42 275.554 1071.15 276.532C1071.88 277.505 1071.87 280.05 1071.13 281.872C1070.18 284.225 1068.92 285.613 1066.82 286.611C1066.72 286.658 1066.64 286.816 1066.64 286.962C1066.64 287.188 1066.72 287.212 1067.19 287.128C1069.17 286.77 1071.15 284.577 1072.07 281.717C1072.37 280.77 1072.43 280.414 1072.46 279.229C1072.49 278.026 1072.46 277.735 1072.24 276.995C1071.74 275.329 1070.98 274.589 1069.77 274.583C1068.99 274.579 1068.75 274.674 1067.73 275.373C1066.41 276.274 1065.78 276.443 1065.6 275.937C1065.24 274.908 1066.59 273.667 1068.91 272.903C1069.42 272.734 1069.77 272.426 1069.77 272.133C1069.77 271.918 1067.71 269.11 1067.55 269.11C1067.47 269.11 1067.37 269.157 1067.33 269.216ZM1099.32 269.265C1099.24 269.461 1099.39 269.897 1099.67 270.285C1099.98 270.715 1099.94 271.072 1099.52 271.556C1098.82 272.374 1098.7 273.263 1099.05 274.989C1099.16 275.536 1099.23 276.034 1099.21 276.096C1099.18 276.158 1098.84 276.447 1098.46 276.737C1097.72 277.288 1096.95 277.432 1096.32 277.137C1096.07 277.02 1096.03 277.045 1096.03 277.332C1096.03 277.812 1096.59 278.198 1097.28 278.196C1097.69 278.195 1098.09 278.047 1098.67 277.678C1099.53 277.127 1099.7 277.156 1099.84 277.883C1099.88 278.072 1100.26 279.581 1100.69 281.238C1102.23 287.209 1102.18 287.024 1102.51 287.024C1102.86 287.024 1102.86 286.318 1102.5 284.916C1102.13 283.459 1102.01 283.002 1101.82 282.427C1101.75 282.209 1101.63 281.745 1101.56 281.396C1101.48 281.048 1101.31 280.41 1101.18 279.98C1101.04 279.549 1100.93 279.138 1100.93 279.067C1100.93 278.996 1100.82 278.587 1100.68 278.158C1100.27 276.849 1100.27 276.665 1100.65 276.365C1101.54 275.666 1102.85 274.803 1103.48 274.493C1104.74 273.871 1106.05 274.241 1106.63 275.382C1107.16 276.441 1106.88 277.819 1105.95 278.71C1105.54 279.11 1105.38 279.162 1104.36 279.226C1103.38 279.287 1103.23 279.334 1103.23 279.566C1103.23 279.879 1104.01 280.212 1104.72 280.2C1106.08 280.178 1107.34 278.923 1107.62 277.314C1107.73 276.66 1107.73 276.452 1107.56 275.729C1107.26 274.35 1106.71 273.603 1105.67 273.143C1104.55 272.65 1103.35 273.048 1101.31 274.593C1100.68 275.065 1100.11 275.451 1100.05 275.451C1099.88 275.451 1099.68 274.733 1099.61 273.862C1099.54 272.925 1099.77 272.203 1100.26 271.847C1100.62 271.589 1100.64 271.592 1101.19 272.044C1101.66 272.435 1101.77 272.473 1101.91 272.294C1102.23 271.897 1102.09 271.573 1101.32 270.862C1100.91 270.478 1100.35 269.927 1100.08 269.637C1099.58 269.084 1099.42 269.008 1099.32 269.265ZM1088.12 269.73C1087.97 269.874 1087.99 270.296 1088.21 272.043C1088.52 274.512 1088.03 279.329 1087.27 281.28C1087.16 281.572 1087.07 281.889 1087.07 281.985C1087.07 282.243 1086.25 283.843 1085.78 284.523C1084.59 286.222 1082.83 286.363 1081.94 284.83C1080.96 283.119 1080.97 280.41 1081.98 277.433C1082.33 276.402 1083.32 274.327 1083.94 273.311C1084.39 272.579 1084.47 272.309 1084.34 271.924C1084.19 271.475 1083.84 271.599 1082.95 272.413C1081.55 273.695 1080.91 273.922 1080.01 273.47C1079.8 273.369 1079.77 273.409 1079.77 273.774C1079.77 274.504 1080.91 275.057 1081.59 274.66C1082.02 274.413 1082.03 274.85 1081.63 275.889C1080.77 278.106 1080.5 279.416 1080.5 281.477C1080.5 284.39 1081.47 286.394 1083.08 286.831C1084.87 287.318 1086.75 285.435 1087.9 281.993C1088.25 280.931 1088.84 278.293 1088.84 277.766C1088.84 277.38 1089.1 276.744 1089.2 276.892C1089.23 276.943 1089.38 277.513 1089.53 278.16C1089.83 279.498 1090.36 281.541 1090.53 282.067C1090.67 282.506 1090.99 282.675 1091.19 282.421C1091.36 282.211 1091.39 281.626 1091.25 281.388C1091.18 281.253 1090.88 280.178 1090.43 278.384C1090.34 278.035 1090.2 277.515 1090.12 277.227C1089.82 276.185 1089.11 272.648 1088.9 271.131C1088.78 270.28 1088.66 269.853 1088.53 269.744C1088.29 269.554 1088.3 269.555 1088.12 269.73ZM1055.85 270.068C1055.45 270.227 1054.74 270.501 1054.29 270.676C1053.21 271.087 1051.84 271.819 1051.51 272.15C1051.33 272.335 1051.29 272.459 1051.37 272.585C1051.46 272.713 1051.71 272.675 1052.31 272.444C1053.15 272.124 1053.5 272.052 1053.5 272.206C1053.5 272.252 1053.28 272.643 1053 273.074C1052.73 273.506 1052.43 274.056 1052.35 274.298C1052.28 274.54 1052.14 274.86 1052.06 275.009C1051.83 275.444 1051.85 276.932 1052.09 277.35C1052.5 278.028 1052.94 278.186 1054.16 278.087L1055.28 277.995V279.567C1055.28 281.962 1055.31 281.895 1053.9 281.989C1052.64 282.074 1052.2 282.268 1051.64 282.995C1051.2 283.554 1051 284.17 1051 284.976C1051 285.523 1051.06 285.727 1051.35 286.141C1051.69 286.632 1052.45 287.024 1053.06 287.024C1053.73 287.024 1054.67 286.328 1055.07 285.538C1055.15 285.367 1055.34 284.865 1055.49 284.422C1055.68 283.843 1055.82 283.601 1056 283.562C1056.14 283.53 1056.72 283.874 1057.43 284.42C1058.51 285.243 1058.64 285.307 1058.78 285.086C1058.88 284.944 1058.92 284.713 1058.88 284.539C1058.78 284.041 1057.52 283.03 1056.18 282.365C1056.01 282.281 1056 282.071 1056.01 280.249C1056.03 277.718 1056.05 277.585 1056.46 277.342C1057.89 276.486 1058.3 276.083 1058.3 275.517C1058.3 274.88 1057.95 274.904 1057.1 275.601C1056.67 275.954 1056.25 276.244 1056.17 276.244C1056.08 276.244 1056.01 275.86 1055.97 274.955C1055.89 273.513 1055.78 273.073 1055.49 273.073C1055.13 273.073 1055.04 273.47 1055.11 274.699C1055.15 275.331 1055.21 276.009 1055.24 276.205C1055.32 276.717 1054.77 277.037 1053.79 277.037C1052.68 277.037 1052.37 276.581 1052.67 275.39C1052.83 274.743 1054.94 271.52 1055.26 271.43C1055.41 271.386 1055.86 271.266 1056.24 271.163C1057.12 270.929 1057.44 270.59 1057.27 270.09C1057.12 269.671 1056.86 269.667 1055.85 270.068ZM1090.3 270.265C1090.3 270.377 1090.54 270.738 1090.83 271.068C1091.44 271.758 1091.81 271.8 1091.81 271.176C1091.81 270.885 1091.7 270.692 1091.39 270.425C1090.93 270.029 1090.3 269.936 1090.3 270.265ZM1048.03 270.698C1047.99 270.787 1048.07 271.111 1048.19 271.417C1048.39 271.903 1048.41 272.132 1048.36 273.198C1048.33 273.87 1048.26 274.706 1048.21 275.055C1047.49 279.603 1047.41 282.536 1047.94 285.592C1048.11 286.604 1048.29 286.939 1048.58 286.798C1048.82 286.685 1048.95 286.249 1049.13 284.963C1049.25 284.172 1049.61 282.411 1050 280.762C1050.11 280.316 1050.12 280.069 1050.04 279.928C1049.83 279.536 1049.57 280.151 1048.86 282.704C1048.58 283.75 1048.48 283.607 1048.36 281.94C1048.3 281.147 1048.43 278.821 1048.6 277.678C1048.66 277.282 1048.78 276.475 1048.87 275.885C1049.13 274.184 1049.18 272.31 1048.98 271.617C1048.75 270.786 1048.21 270.264 1048.03 270.698ZM1089.78 271.849C1089.78 272.19 1090.89 273.866 1091.12 273.866C1091.37 273.866 1091.5 273.36 1091.35 272.938C1091.09 272.189 1089.78 271.282 1089.78 271.849ZM1053.24 283.229C1052.39 283.494 1052.24 283.585 1051.99 284.043C1051.68 284.598 1051.66 285.112 1051.92 285.598C1052.08 285.901 1052.21 285.95 1052.81 285.944C1053.78 285.936 1054.32 285.454 1054.71 284.236C1054.95 283.5 1054.97 283.325 1054.85 283.207C1054.67 283.038 1053.83 283.05 1053.24 283.229Z" fill="black"/>
</svg>
